<svg width="300" height="200" xmlns="http://www.w3.org/2000/svg">
  <!-- Plato -->
  <ellipse cx="150" cy="150" rx="120" ry="30" fill="#e0e0e0" stroke="#333" stroke-width="2"/>
  
  <!-- Pancakes -->
  <ellipse cx="150" cy="145" rx="80" ry="20" fill="#e6c888" stroke="#bfa76a" stroke-width="1"/>
  <ellipse cx="150" cy="135" rx="75" ry="18" fill="#e6c888" stroke="#bfa76a" stroke-width="1"/>
  <ellipse cx="150" cy="125" rx="70" ry="16" fill="#e6c888" stroke="#bfa76a" stroke-width="1"/>
  
  <!-- Miel derramándose -->
  <path d="M150,110 C170,110 170,120 170,130 S175,145 175,160" fill="none" stroke="#e6c088" stroke-width="8"/>
  <path d="M140,110 C120,115 130,125 130,135 S125,150 125,165" fill="none" stroke="#e6c088" stroke-width="6"/>
  
  <!-- Trozos de plátano -->
  <ellipse cx="130" cy="105" rx="12" ry="6" fill="#ffec99" stroke="#e6d287" stroke-width="1" transform="rotate(-10,130,105)"/>
  <ellipse cx="175" cy="120" rx="12" ry="6" fill="#ffec99" stroke="#e6d287" stroke-width="1" transform="rotate(20,175,120)"/>
  <ellipse cx="120" cy="130" rx="12" ry="6" fill="#ffec99" stroke="#e6d287" stroke-width="1" transform="rotate(5,120,130)"/>
  
  <!-- Arándanos -->
  <circle cx="160" cy="105" r="5" fill="#6c5ce7" stroke="#4834d4" stroke-width="0.5"/>
  <circle cx="185" cy="135" r="5" fill="#6c5ce7" stroke="#4834d4" stroke-width="0.5"/>
  <circle cx="140" cy="120" r="5" fill="#6c5ce7" stroke="#4834d4" stroke-width="0.5"/>
  <circle cx="110" cy="115" r="5" fill="#6c5ce7" stroke="#4834d4" stroke-width="0.5"/>
  
  <!-- Tenedor -->
  <path d="M50,130 L90,110" stroke="#aaa" stroke-width="2" fill="none"/>
  <path d="M90,110 L95,108 L100,115 L95,117 Z" fill="#aaa" stroke="#888" stroke-width="1"/>
  <path d="M95,108 L100,100 L105,98 L110,105 L105,107 Z" fill="#aaa" stroke="#888" stroke-width="1"/>
</svg>