<svg width="300" height="200" xmlns="http://www.w3.org/2000/svg">
  <!-- Figura haciendo curl de bíceps -->
  <rect x="140" y="110" width="20" height="70" rx="5" fill="#333" stroke="none"/> <!-- Torso -->
  
  <!-- Brazo izquierdo haciendo curl -->
  <path d="M140,120 C115,130 110,160 120,170 C125,175 135,170 140,160" fill="#0066cc" stroke="#003366" stroke-width="2"/>
  
  <!-- Brazo derecho haciendo curl -->
  <path d="M160,120 C185,110 190,130 180,150 C175,160 165,165 160,160" fill="#0066cc" stroke="#003366" stroke-width="2"/>
  
  <!-- Cabeza -->
  <circle cx="150" cy="90" r="20" fill="#333" stroke="none"/>
  
  <!-- Mancuernas -->
  <rect x="100" y="165" width="30" height="10" rx="3" fill="#222" stroke="#111" stroke-width="1"/>
  <circle cx="100" cy="170" r="8" fill="#555" stroke="#111" stroke-width="1"/>
  <circle cx="130" cy="170" r="8" fill="#555" stroke="#111" stroke-width="1"/>
  
  <rect x="170" y="145" width="30" height="10" rx="3" fill="#222" stroke="#111" stroke-width="1"/>
  <circle cx="170" cy="150" r="8" fill="#555" stroke="#111" stroke-width="1"/>
  <circle cx="200" cy="150" r="8" fill="#555" stroke="#111" stroke-width="1"/>
</svg>