<svg width="300" height="200" xmlns="http://www.w3.org/2000/svg">
  <!-- Vaso de batido -->
  <path d="M120,180 L140,50 L160,50 L180,180 Z" fill="#d7f9da" fill-opacity="0.7" stroke="#333" stroke-width="2"/>
  <path d="M140,50 L160,50 L160,40 L140,40 Z" fill="#ddd" stroke="#333" stroke-width="1.5"/>
  
  <!-- Contenido del batido -->
  <path d="M122,170 L178,170 L162,60 L138,60 Z" fill="#27ae60" fill-opacity="0.8" stroke="none"/>
  
  <!-- Pajita -->
  <path d="M170,40 Q175,30 180,25 L177,22 L163,38 Z" fill="#ff6b6b" stroke="#333" stroke-width="0.5"/>
  <path d="M177,22 Q170,15 175,8" fill="none" stroke="#ff6b6b" stroke-width="3"/>
  
  <!-- Hojas de espinaca -->
  <ellipse cx="150" cy="90" rx="15" ry="8" fill="#2ecc71" stroke="#27ae60" stroke-width="0.5" transform="rotate(20,150,90)"/>
  <ellipse cx="160" cy="110" rx="12" ry="6" fill="#2ecc71" stroke="#27ae60" stroke-width="0.5" transform="rotate(-15,160,110)"/>
  
  <!-- Burbujas -->
  <circle cx="145" cy="120" r="3" fill="#ffffff" fill-opacity="0.6"/>
  <circle cx="155" cy="100" r="2" fill="#ffffff" fill-opacity="0.6"/>
  <circle cx="140" cy="140" r="2.5" fill="#ffffff" fill-opacity="0.6"/>
  <circle cx="160" cy="130" r="2" fill="#ffffff" fill-opacity="0.6"/>
  <circle cx="150" cy="150" r="3" fill="#ffffff" fill-opacity="0.6"/>
  
  <!-- Frutas alrededor -->
  <circle cx="110" cy="70" r="10" fill="#2ecc71" stroke="#27ae60" stroke-width="1"/> <!-- Manzana verde -->
  <path d="M110,63 L110,60 C110,60 115,55 105,55 Z" fill="#8B4513" stroke="none"/> <!-- Tallo manzana -->
  
  <path d="M200,90 Q210,80 220,90 Q230,100 220,110 Q210,120 200,110 Q190,100 200,90 Z" fill="#f1c40f" stroke="#f39c12" stroke-width="1"/> <!-- Piña -->
  
  <path d="M90,110 C85,105 85,95 90,90 C95,85 105,85 110,90 C115,95 115,105 110,110 C105,115 95,115 90,110 Z" fill="#9b59b6" stroke="#8e44ad" stroke-width="1"/> <!-- Uvas -->
</svg>