<svg width="300" height="200" xmlns="http://www.w3.org/2000/svg">
  <!-- Plato/Bowl -->
  <ellipse cx="150" cy="120" rx="120" ry="60" fill="#e0e0e0" stroke="#333" stroke-width="2"/>
  <ellipse cx="150" cy="120" rx="100" ry="50" fill="#f5f5f5" stroke="#333" stroke-width="1"/>
  
  <!-- Quinoa base -->
  <ellipse cx="150" cy="120" rx="90" ry="45" fill="#f0e6c9" stroke="none"/>
  
  <!-- Garbanzos -->
  <circle cx="120" cy="100" r="8" fill="#e6c088" stroke="#d4a76a" stroke-width="1"/>
  <circle cx="150" cy="110" r="8" fill="#e6c088" stroke="#d4a76a" stroke-width="1"/>
  <circle cx="180" cy="100" r="8" fill="#e6c088" stroke="#d4a76a" stroke-width="1"/>
  <circle cx="140" cy="90" r="8" fill="#e6c088" stroke="#d4a76a" stroke-width="1"/>
  <circle cx="170" cy="130" r="8" fill="#e6c088" stroke="#d4a76a" stroke-width="1"/>
  
  <!-- Verduras -->
  <ellipse cx="130" cy="140" rx="12" ry="8" fill="#86bf91" stroke="#6ca677" stroke-width="1" transform="rotate(-20,130,140)"/>
  <ellipse cx="110" cy="120" rx="12" ry="8" fill="#86bf91" stroke="#6ca677" stroke-width="1" transform="rotate(30,110,120)"/>
  <ellipse cx="160" cy="90" rx="12" ry="8" fill="#ed8975" stroke="#d56f5d" stroke-width="1" transform="rotate(10,160,90)"/>
  <ellipse cx="190" cy="120" rx="12" ry="8" fill="#9567ac" stroke="#7d4992" stroke-width="1" transform="rotate(-10,190,120)"/>
  
  <!-- Hojas verdes -->
  <path d="M100,100 Q120,80 140,95 Q130,90 100,100 Z" fill="#3a9e4c" stroke="#2d8a3e" stroke-width="1"/>
  <path d="M160,140 Q180,120 200,130 Q190,125 160,140 Z" fill="#3a9e4c" stroke="#2d8a3e" stroke-width="1"/>
  <path d="M190,90 Q200,70 210,90 Q200,85 190,90 Z" fill="#3a9e4c" stroke="#2d8a3e" stroke-width="1"/>
</svg>